<?xml version="1.0" encoding="UTF-8"?>
<svg width="500" height="500" viewBox="0 0 500 500" fill="none" xmlns="http://www.w3.org/2000/svg">
  <circle cx="250" cy="250" r="250" fill="#FF007A"/>
  <path d="M390.633 189.815C379.116 163.711 353.006 144.939 322.282 144.939C299.549 144.939 279.051 156.092 265.93 173.484C252.808 156.092 232.31 144.939 209.577 144.939C178.853 144.939 152.743 163.711 141.226 189.815C108.898 189.815 82.788 215.919 82.788 248.238C82.788 280.557 108.898 306.661 141.226 306.661C152.743 332.765 178.853 351.537 209.577 351.537C232.31 351.537 252.808 340.384 265.93 322.992C279.051 340.384 299.549 351.537 322.282 351.537C353.006 351.537 379.116 332.765 390.633 306.661C422.961 306.661 449.071 280.557 449.071 248.238C449.071 215.919 422.961 189.815 390.633 189.815Z" fill="white"/>
</svg> 