<?xml version="1.0" encoding="UTF-8"?>
<svg width="500" height="500" viewBox="0 0 500 500" fill="none" xmlns="http://www.w3.org/2000/svg">
  <path d="M250 500C388.071 500 500 388.071 500 250C500 111.929 388.071 0 250 0C111.929 0 0 111.929 0 250C0 388.071 111.929 500 250 500Z" fill="url(#paint0_linear)"/>
  <path d="M308.613 249.873C308.613 226.764 289.575 207.726 266.466 207.726C256.016 207.726 246.431 211.726 239.04 218.251C231.649 211.726 222.064 207.726 211.614 207.726C188.505 207.726 169.467 226.764 169.467 249.873C169.467 272.982 188.505 292.02 211.614 292.02C222.064 292.02 231.649 288.02 239.04 281.495C246.431 288.02 256.016 292.02 266.466 292.02C289.575 292.02 308.613 272.982 308.613 249.873Z" fill="white"/>
  <defs>
    <linearGradient id="paint0_linear" x1="250" y1="0" x2="250" y2="500" gradientUnits="userSpaceOnUse">
      <stop stop-color="#FF007A"/>
      <stop offset="1" stop-color="#A400DB"/>
    </linearGradient>
  </defs>
</svg> 